<svg height="512pt" viewBox="0 0 512 512" width="512pt" xmlns="http://www.w3.org/2000/svg"><path d="m101.167969 123.695312h49.308593c4.140626 0 7.5-3.355468 7.5-7.5 0-4.140624-3.359374-7.5-7.5-7.5h-49.308593c-4.144531 0-7.5 3.359376-7.5 7.5 0 4.144532 3.355469 7.5 7.5 7.5zm0 0"/><path d="m177.355469 123.695312h86.695312c4.140625 0 7.5-3.355468 7.5-7.5 0-4.140624-3.359375-7.5-7.5-7.5h-86.695312c-4.140625 0-7.5 3.359376-7.5 7.5 0 4.144532 3.359375 7.5 7.5 7.5zm0 0"/><path d="m101.167969 152.308594h21.003906c4.140625 0 7.5-3.355469 7.5-7.5 0-4.140625-3.359375-7.5-7.5-7.5h-21.003906c-4.144531 0-7.5 3.359375-7.5 7.5 0 4.144531 3.355469 7.5 7.5 7.5zm0 0"/><path d="m257.5625 144.808594c0-4.140625-3.359375-7.5-7.5-7.5h-12.792969c-4.140625 0-7.5 3.359375-7.5 7.5 0 4.144531 3.359375 7.5 7.5 7.5h12.792969c4.140625 0 7.5-3.355469 7.5-7.5zm0 0"/><path d="m147.855469 137.308594c-4.140625 0-7.5 3.359375-7.5 7.5 0 4.144531 3.359375 7.5 7.5 7.5h62.828125c4.140625 0 7.5-3.355469 7.5-7.5 0-4.140625-3.359375-7.5-7.5-7.5zm0 0"/><path d="m265.773438 144.808594c0 4.144531 3.359374 7.5 7.5 7.5h23.960937c4.140625 0 7.5-3.355469 7.5-7.5 0-4.140625-3.359375-7.5-7.5-7.5h-23.960937c-4.140626 0-7.5 3.359375-7.5 7.5zm0 0"/><path d="m269.445312 176.734375h-21.429687c-4.144531 0-7.5 3.355469-7.5 7.5s3.355469 7.5 7.5 7.5h21.429687c4.144532 0 7.5-3.355469 7.5-7.5s-3.355468-7.5-7.5-7.5zm0 0"/><path d="m295.953125 184.234375c0 4.144531 3.355469 7.5 7.5 7.5h34.578125c4.140625 0 7.5-3.355469 7.5-7.5s-3.359375-7.5-7.5-7.5h-34.578125c-4.144531 0-7.5 3.359375-7.5 7.5zm0 0"/><path d="m367.75 191.734375h44.578125c4.144531 0 7.5-3.355469 7.5-7.5s-3.355469-7.5-7.5-7.5h-44.578125c-4.144531 0-7.5 3.355469-7.5 7.5s3.355469 7.5 7.5 7.5zm0 0"/><path d="m240.515625 219.367188c0 4.144531 3.355469 7.5 7.5 7.5h55.4375c4.140625 0 7.5-3.355469 7.5-7.5 0-4.144532-3.359375-7.5-7.5-7.5h-55.4375c-4.144531 0-7.5 3.359374-7.5 7.5zm0 0"/><path d="m330.53125 219.367188c0 4.144531 3.355469 7.5 7.5 7.5h13.574219c4.140625 0 7.5-3.355469 7.5-7.5 0-4.144532-3.359375-7.5-7.5-7.5h-13.574219c-4.144531 0-7.5 3.359374-7.5 7.5zm0 0"/><path d="m412.328125 211.867188h-27.144531c-4.144532 0-7.5 3.355468-7.5 7.5 0 4.144531 3.355468 7.5 7.5 7.5h27.144531c4.144531 0 7.5-3.355469 7.5-7.5 0-4.144532-3.355469-7.5-7.5-7.5zm0 0"/><path d="m269.445312 247h-21.429687c-4.144531 0-7.5 3.355469-7.5 7.5s3.355469 7.5 7.5 7.5h21.429687c4.144532 0 7.5-3.355469 7.5-7.5s-3.355468-7.5-7.5-7.5zm0 0"/><path d="m367.75 247h-64.296875c-4.144531 0-7.5 3.355469-7.5 7.5s3.355469 7.5 7.5 7.5h64.296875c4.140625 0 7.5-3.355469 7.5-7.5s-3.359375-7.5-7.5-7.5zm0 0"/><path d="m412.328125 247h-13.574219c-4.140625 0-7.5 3.355469-7.5 7.5s3.359375 7.5 7.5 7.5h13.574219c4.144531 0 7.5-3.355469 7.5-7.5s-3.355469-7.5-7.5-7.5zm0 0"/><path d="m377.378906 460.640625h-4.929687v-4.304687c0-9.222657-7.503907-16.726563-16.726563-16.726563h-15.1875c-3.496094 0-6.738281 1.082031-9.425781 2.921875-2.6875-1.839844-5.933594-2.921875-9.429687-2.921875h-15.1875c-3.496094 0-6.742188 1.082031-9.425782 2.921875-2.6875-1.839844-5.933594-2.921875-9.425781-2.921875h-15.191406c-9.222657 0-16.722657 7.503906-16.722657 16.726563v4.304687h-19.449218v-4.304687c0-9.222657-7.503906-16.726563-16.722656-16.726563h-15.191407c-3.496093 0-6.738281 1.082031-9.425781 2.921875-2.6875-1.839844-5.933594-2.921875-9.425781-2.921875h-15.191407c-3.40625 0-6.578124 1.03125-9.222656 2.789063-2.648437-1.757813-5.816406-2.789063-9.226562-2.789063h-83.675782c-3.496093 0-6.742187 1.082031-9.429687 2.921875-2.683594-1.839844-5.929687-2.921875-9.425781-2.921875h-15.1875c-9.222656 0-16.722656 7.503906-16.722656 16.726563v4.304687h-4.929688c-6.894531 0-12.5 5.605469-12.5 12.5v26.359375c0 6.894531 5.605469 12.5 12.5 12.5h59.515625c4.144531 0 7.5-3.355469 7.5-7.5s-3.355469-7.5-7.5-7.5h-57.015625v-21.359375h359.878906v21.359375h-268.859375c-4.140625 0-7.5 3.355469-7.5 7.5s3.359375 7.5 7.5 7.5h271.359375c6.894532 0 12.5-5.605469 12.5-12.5v-26.359375c0-6.894531-5.609375-12.5-12.5-12.5zm-326.3125 0h-18.636718v-4.304687c0-.953126.769531-1.726563 1.722656-1.726563h15.1875c.949218 0 1.726562.773437 1.726562 1.726563zm102.53125 0h-87.125v-4.304687c0-.953126.769532-1.726563 1.722656-1.726563h83.679688c.949219 0 1.726562.773437 1.726562 1.726563v4.304687zm33.636719 0h-18.636719v-4.304687c0-.953126.773438-1.726563 1.722656-1.726563h15.191407c.949219 0 1.722656.773437 1.722656 1.726563zm34.042969 0h-18.636719v-4.304687c0-.953126.773437-1.726563 1.722656-1.726563h15.191407c.949218 0 1.722656.773437 1.722656 1.726563zm68.085937 0h-18.636719v-4.304687c0-.953126.773438-1.726563 1.722657-1.726563h15.191406c.949219 0 1.722656.773437 1.722656 1.726563zm34.042969 0h-18.636719v-4.304687c0-.953126.773438-1.726563 1.722657-1.726563h15.191406c.949218 0 1.722656.773437 1.722656 1.726563zm34.042969 0h-18.636719v-4.304687c0-.953126.773438-1.726563 1.722656-1.726563h15.1875c.953125 0 1.726563.773437 1.726563 1.726563zm0 0"/><path d="m477.296875 436.050781h-44.023437c-18.875 0-34.234376 15.355469-34.234376 34.230469v29.21875c0 6.894531 5.609376 12.5 12.5 12.5h87.492188c6.894531 0 12.5-5.605469 12.5-12.5v-29.21875c0-18.875-15.355469-34.230469-34.234375-34.230469zm19.234375 60.949219h-82.492188v-26.71875c0-10.601562 8.628907-19.230469 19.234376-19.230469h44.023437c10.605469 0 19.234375 8.628907 19.234375 19.230469zm0 0"/><path d="m74.96875 351.800781h116.730469v18.925781h-16.910157c-13.015624 0-23.605468 10.589844-23.605468 23.605469v13.121094c0 6.367187 5.179687 11.546875 11.546875 11.546875h109.785156c4.140625 0 7.5-3.355469 7.5-7.5 0-4.140625-3.359375-7.5-7.5-7.5h-106.332031v-9.667969c0-4.746093 3.863281-8.605469 8.605468-8.605469h161.359376c4.75 0 8.609374 3.859376 8.609374 8.605469v9.667969h-37.242187c-4.144531 0-7.5 3.359375-7.5 7.5 0 4.144531 3.355469 7.5 7.5 7.5h40.695313c6.367187 0 11.546874-5.179688 11.546874-11.546875v-13.121094c0-13.015625-10.589843-23.605469-23.609374-23.605469h-16.90625v-18.925781h116.734374c15.523438 0 28.15625-12.628906 28.15625-28.152343l.457032-295.496094c0-15.523438-12.628906-28.152344-28.152344-28.152344h-361.46875c-15.527344 0-28.15625 12.628906-28.15625 28.152344v295.492187c0 15.527344 12.628906 28.15625 28.15625 28.15625zm229.273438 18.925781h-97.542969v-18.925781h97.542969zm-241.980469-342.574218c0-7.253906 5.898437-13.152344 13.152343-13.152344h360.5625c7.253907 0 13.15625 5.902344 13.15625 13.152344v42.304687h-386.871093zm-.449219 57.304687h387.320312v201.582031h-387.320312zm0 216.582031h387.320312v21.605469c0 7.253907-5.902343 13.15625-13.15625 13.15625h-361.007812c-7.253906 0-13.15625-5.902343-13.15625-13.15625zm0 0"/><path d="m93.023438 23.308594c-10.613282 0-19.246094 8.636718-19.246094 19.25 0 10.613281 8.632812 19.246094 19.246094 19.246094 10.613281 0 19.25-8.632813 19.25-19.246094 0-10.613282-8.636719-19.25-19.25-19.25zm0 23.496094c-2.339844 0-4.246094-1.90625-4.246094-4.246094 0-2.34375 1.90625-4.25 4.246094-4.25 2.34375 0 4.25 1.90625 4.25 4.25 0 2.339844-1.90625 4.246094-4.25 4.246094zm0 0"/><path d="m138.394531 23.308594c-10.613281 0-19.246093 8.636718-19.246093 19.25 0 10.613281 8.632812 19.246094 19.246093 19.246094s19.25-8.632813 19.25-19.246094c0-10.613282-8.636719-19.25-19.25-19.25zm0 23.496094c-2.339843 0-4.246093-1.90625-4.246093-4.246094 0-2.34375 1.90625-4.25 4.246093-4.25 2.34375 0 4.25 1.90625 4.25 4.25 0 2.339844-1.90625 4.246094-4.25 4.246094zm0 0"/><path d="m183.765625 23.308594c-10.613281 0-19.246094 8.636718-19.246094 19.25 0 10.613281 8.632813 19.246094 19.246094 19.246094s19.25-8.632813 19.25-19.246094c0-10.613282-8.632813-19.25-19.25-19.25zm0 23.496094c-2.339844 0-4.246094-1.90625-4.246094-4.246094 0-2.34375 1.90625-4.25 4.246094-4.25 2.34375 0 4.25 1.90625 4.25 4.25 0 2.339844-1.90625 4.246094-4.25 4.246094zm0 0"/><path d="m104.078125 269.75h99.558594c6.890625 0 12.5-5.605469 12.5-12.5v-75.765625c0-6.894531-5.609375-12.5-12.5-12.5h-99.558594c-6.894531 0-12.5 5.605469-12.5 12.5v75.765625c0 6.894531 5.609375 12.5 12.5 12.5zm2.5-85.765625h94.558594v70.765625h-94.558594zm0 0"/></svg>